<mxfile host="app.diagrams.net" modified="2022-04-25T12:46:08.579Z" agent="5.0 (Windows NT 10.0; Win64; x64) AppleWebKit/537.36 (KHTML, like Gecko) Chrome/98.0.4758.102 Safari/537.36" etag="AcCAvms5KFRHkwxMcm1Z" version="17.4.0" type="github" pages="3">
  <diagram id="nBWKna1nZSuBnirQscmM" name="High Level Diagram">
    <mxGraphModel dx="1422" dy="705" grid="1" gridSize="10" guides="1" tooltips="1" connect="1" arrows="1" fold="1" page="1" pageScale="1" pageWidth="1169" pageHeight="827" math="0" shadow="0">
      <root>
        <mxCell id="0" />
        <mxCell id="1" parent="0" />
        <mxCell id="AYPneHIGifl3LNO6MSzv-1" value="&lt;b&gt;Execution&lt;/b&gt;&lt;br&gt;New Activity Screen--&lt;br&gt;Make decision on service" style="triangle;whiteSpace=wrap;html=1;direction=south;" vertex="1" parent="1">
          <mxGeometry x="350" y="490" width="380" height="210" as="geometry" />
        </mxCell>
        <mxCell id="AYPneHIGifl3LNO6MSzv-2" value="&lt;b&gt;Tactical&lt;/b&gt;&lt;br&gt;Outbound Planning&lt;br&gt;Driver Scheduling&lt;br&gt;Tactical Demand Forecasting (Influx or Weather)&lt;br&gt;Capacity Planning (Imediate Trends)" style="shape=trapezoid;perimeter=trapezoidPerimeter;whiteSpace=wrap;html=1;fixedSize=1;direction=west;" vertex="1" parent="1">
          <mxGeometry x="290" y="290" width="500" height="140" as="geometry" />
        </mxCell>
        <mxCell id="AYPneHIGifl3LNO6MSzv-3" value="&lt;b&gt;Strategic&lt;/b&gt;&lt;br&gt;Over Arching Demand Forecasting&lt;br&gt;Service Planning&lt;br&gt;:Load Planning&lt;br&gt;Alternate Routing" style="shape=trapezoid;perimeter=trapezoidPerimeter;whiteSpace=wrap;html=1;fixedSize=1;direction=west;" vertex="1" parent="1">
          <mxGeometry x="250" y="90" width="580" height="150" as="geometry" />
        </mxCell>
        <mxCell id="AYPneHIGifl3LNO6MSzv-4" value="" style="shape=flexArrow;endArrow=classic;html=1;rounded=0;exitX=0.5;exitY=0;exitDx=0;exitDy=0;" edge="1" parent="1" source="AYPneHIGifl3LNO6MSzv-3" target="AYPneHIGifl3LNO6MSzv-2">
          <mxGeometry width="50" height="50" relative="1" as="geometry">
            <mxPoint x="560" y="330" as="sourcePoint" />
            <mxPoint x="610" y="280" as="targetPoint" />
          </mxGeometry>
        </mxCell>
        <mxCell id="AYPneHIGifl3LNO6MSzv-5" value="" style="shape=flexArrow;endArrow=classic;html=1;rounded=0;exitX=0.5;exitY=0;exitDx=0;exitDy=0;entryX=0;entryY=0.5;entryDx=0;entryDy=0;" edge="1" parent="1" source="AYPneHIGifl3LNO6MSzv-2" target="AYPneHIGifl3LNO6MSzv-1">
          <mxGeometry width="50" height="50" relative="1" as="geometry">
            <mxPoint x="560" y="330" as="sourcePoint" />
            <mxPoint x="610" y="280" as="targetPoint" />
          </mxGeometry>
        </mxCell>
        <mxCell id="KTXg_kqzTGXt8c4vDozQ-1" value="&lt;font style=&quot;font-size: 24px&quot;&gt;Linehaul--Overarching Objectives&lt;/font&gt;" style="rounded=0;whiteSpace=wrap;html=1;" vertex="1" parent="1">
          <mxGeometry x="70" y="20" width="940" height="60" as="geometry" />
        </mxCell>
      </root>
    </mxGraphModel>
  </diagram>
  <diagram id="cQ7xgHJY-K7sjk89VHS-" name="Function Mapping">
    <mxGraphModel dx="1422" dy="705" grid="1" gridSize="10" guides="1" tooltips="1" connect="1" arrows="1" fold="1" page="1" pageScale="1" pageWidth="1169" pageHeight="827" math="0" shadow="0">
      <root>
        <mxCell id="0" />
        <mxCell id="1" parent="0" />
        <mxCell id="nPFzevppue3sUhxIeB_t-1" value="" style="rounded=1;whiteSpace=wrap;html=1;fontSize=24;fontStyle=1" vertex="1" parent="1">
          <mxGeometry x="90" y="50" width="1040" height="550" as="geometry" />
        </mxCell>
        <mxCell id="nPFzevppue3sUhxIeB_t-2" value="&lt;font style=&quot;font-size: 16px&quot;&gt;Strategic Network Planning&lt;/font&gt;" style="rounded=1;whiteSpace=wrap;html=1;fontSize=24;" vertex="1" parent="1">
          <mxGeometry x="490" y="85" width="190" height="100" as="geometry" />
        </mxCell>
        <mxCell id="nPFzevppue3sUhxIeB_t-3" value="Overarching Objective" style="text;html=1;strokeColor=none;fillColor=none;align=center;verticalAlign=middle;whiteSpace=wrap;rounded=0;fontSize=24;" vertex="1" parent="1">
          <mxGeometry x="160" y="120" width="60" height="30" as="geometry" />
        </mxCell>
        <mxCell id="nPFzevppue3sUhxIeB_t-4" value="Primary Objective" style="text;html=1;strokeColor=none;fillColor=none;align=center;verticalAlign=middle;whiteSpace=wrap;rounded=0;fontSize=24;" vertex="1" parent="1">
          <mxGeometry x="160" y="230" width="60" height="30" as="geometry" />
        </mxCell>
        <mxCell id="nPFzevppue3sUhxIeB_t-5" value="Load Plan" style="rounded=1;whiteSpace=wrap;html=1;fontSize=14;" vertex="1" parent="1">
          <mxGeometry x="291" y="225" width="120" height="60" as="geometry" />
        </mxCell>
        <mxCell id="nPFzevppue3sUhxIeB_t-6" value="Schedule Plan" style="rounded=1;whiteSpace=wrap;html=1;fontSize=14;" vertex="1" parent="1">
          <mxGeometry x="436" y="225" width="120" height="60" as="geometry" />
        </mxCell>
        <mxCell id="nPFzevppue3sUhxIeB_t-7" value="Dispatch Plan" style="rounded=1;whiteSpace=wrap;html=1;fontSize=14;" vertex="1" parent="1">
          <mxGeometry x="585" y="225" width="120" height="60" as="geometry" />
        </mxCell>
        <mxCell id="nPFzevppue3sUhxIeB_t-8" value="Communication Plan" style="rounded=1;whiteSpace=wrap;html=1;fontSize=14;" vertex="1" parent="1">
          <mxGeometry x="880" y="225" width="120" height="60" as="geometry" />
        </mxCell>
        <mxCell id="nPFzevppue3sUhxIeB_t-9" value="Equipment Plan" style="rounded=1;whiteSpace=wrap;html=1;fontSize=14;" vertex="1" parent="1">
          <mxGeometry x="740" y="225" width="120" height="60" as="geometry" />
        </mxCell>
        <mxCell id="-nGSI3EbDuyZFgCANbuL-1" value="Secondary Objective&lt;br&gt;" style="text;html=1;strokeColor=none;fillColor=none;align=center;verticalAlign=middle;whiteSpace=wrap;rounded=0;fontSize=24;" vertex="1" parent="1">
          <mxGeometry x="150" y="340" width="60" height="30" as="geometry" />
        </mxCell>
        <mxCell id="-nGSI3EbDuyZFgCANbuL-2" value="Function" style="text;html=1;strokeColor=none;fillColor=none;align=center;verticalAlign=middle;whiteSpace=wrap;rounded=0;fontSize=24;" vertex="1" parent="1">
          <mxGeometry x="150" y="440" width="60" height="30" as="geometry" />
        </mxCell>
        <mxCell id="-nGSI3EbDuyZFgCANbuL-3" value="&lt;font style=&quot;font-size: 10px&quot;&gt;Route Freight on Dock&lt;/font&gt;" style="rounded=1;whiteSpace=wrap;html=1;fontSize=14;" vertex="1" parent="1">
          <mxGeometry x="260" y="332.5" width="100" height="45" as="geometry" />
        </mxCell>
        <mxCell id="-nGSI3EbDuyZFgCANbuL-5" value="&lt;font style=&quot;font-size: 10px&quot;&gt;Predict Loads&lt;/font&gt;" style="rounded=1;whiteSpace=wrap;html=1;fontSize=14;" vertex="1" parent="1">
          <mxGeometry x="260" y="425" width="100" height="45" as="geometry" />
        </mxCell>
        <mxCell id="-nGSI3EbDuyZFgCANbuL-8" value="&lt;font style=&quot;font-size: 10px&quot;&gt;Load Freight&lt;/font&gt;" style="rounded=1;whiteSpace=wrap;html=1;fontSize=14;" vertex="1" parent="1">
          <mxGeometry x="260" y="480" width="100" height="45" as="geometry" />
        </mxCell>
        <mxCell id="-nGSI3EbDuyZFgCANbuL-10" value="&lt;font style=&quot;font-size: 10px&quot;&gt;Monitor Productivity&lt;/font&gt;" style="rounded=1;whiteSpace=wrap;html=1;fontSize=14;" vertex="1" parent="1">
          <mxGeometry x="260" y="540" width="100" height="45" as="geometry" />
        </mxCell>
        <mxCell id="-nGSI3EbDuyZFgCANbuL-11" style="edgeStyle=orthogonalEdgeStyle;rounded=0;orthogonalLoop=1;jettySize=auto;html=1;exitX=0.5;exitY=1;exitDx=0;exitDy=0;entryX=0;entryY=1;entryDx=0;entryDy=0;fontSize=10;" edge="1" parent="1" source="nPFzevppue3sUhxIeB_t-4" target="nPFzevppue3sUhxIeB_t-4">
          <mxGeometry relative="1" as="geometry" />
        </mxCell>
        <mxCell id="-nGSI3EbDuyZFgCANbuL-12" style="edgeStyle=orthogonalEdgeStyle;rounded=0;orthogonalLoop=1;jettySize=auto;html=1;exitX=0.25;exitY=0;exitDx=0;exitDy=0;entryX=0.5;entryY=0;entryDx=0;entryDy=0;fontSize=10;" edge="1" parent="1" source="-nGSI3EbDuyZFgCANbuL-1" target="-nGSI3EbDuyZFgCANbuL-1">
          <mxGeometry relative="1" as="geometry" />
        </mxCell>
        <mxCell id="-nGSI3EbDuyZFgCANbuL-14" value="&lt;font style=&quot;font-size: 10px&quot;&gt;Outbound Plan&lt;/font&gt;" style="rounded=1;whiteSpace=wrap;html=1;fontSize=14;" vertex="1" parent="1">
          <mxGeometry x="375" y="332.5" width="100" height="45" as="geometry" />
        </mxCell>
      </root>
    </mxGraphModel>
  </diagram>
  <diagram id="prtHgNgQTEPvFCAcTncT" name="Interactions">
    <mxGraphModel dx="1422" dy="705" grid="1" gridSize="10" guides="1" tooltips="1" connect="1" arrows="1" fold="1" page="1" pageScale="1" pageWidth="827" pageHeight="1169" math="0" shadow="0">
      <root>
        <mxCell id="0" />
        <mxCell id="1" parent="0" />
        <mxCell id="dNxyNK7c78bLwvsdeMH5-19" value="Linehaul Operations" style="swimlane;html=1;childLayout=stackLayout;resizeParent=1;resizeParentMax=0;horizontal=0;startSize=20;horizontalStack=0;" parent="1" vertex="1">
          <mxGeometry x="50" y="40" width="710" height="360" as="geometry" />
        </mxCell>
        <mxCell id="dNxyNK7c78bLwvsdeMH5-27" value="" style="edgeStyle=orthogonalEdgeStyle;rounded=0;orthogonalLoop=1;jettySize=auto;html=1;dashed=1;endArrow=none;endFill=0;" parent="dNxyNK7c78bLwvsdeMH5-19" source="dNxyNK7c78bLwvsdeMH5-24" target="dNxyNK7c78bLwvsdeMH5-26" edge="1">
          <mxGeometry relative="1" as="geometry" />
        </mxCell>
        <mxCell id="dNxyNK7c78bLwvsdeMH5-31" style="edgeStyle=orthogonalEdgeStyle;rounded=0;orthogonalLoop=1;jettySize=auto;html=1;endArrow=classic;endFill=1;" parent="dNxyNK7c78bLwvsdeMH5-19" source="dNxyNK7c78bLwvsdeMH5-28" target="dNxyNK7c78bLwvsdeMH5-30" edge="1">
          <mxGeometry relative="1" as="geometry" />
        </mxCell>
        <mxCell id="dNxyNK7c78bLwvsdeMH5-35" style="edgeStyle=orthogonalEdgeStyle;rounded=0;orthogonalLoop=1;jettySize=auto;html=1;endArrow=classic;endFill=1;" parent="dNxyNK7c78bLwvsdeMH5-19" source="dNxyNK7c78bLwvsdeMH5-28" target="dNxyNK7c78bLwvsdeMH5-34" edge="1">
          <mxGeometry relative="1" as="geometry" />
        </mxCell>
        <mxCell id="dNxyNK7c78bLwvsdeMH5-38" style="edgeStyle=orthogonalEdgeStyle;rounded=0;orthogonalLoop=1;jettySize=auto;html=1;endArrow=classic;endFill=1;" parent="dNxyNK7c78bLwvsdeMH5-19" source="dNxyNK7c78bLwvsdeMH5-26" target="dNxyNK7c78bLwvsdeMH5-36" edge="1">
          <mxGeometry relative="1" as="geometry">
            <Array as="points">
              <mxPoint x="180" y="340" />
              <mxPoint x="400" y="340" />
            </Array>
          </mxGeometry>
        </mxCell>
        <mxCell id="dNxyNK7c78bLwvsdeMH5-20" value="Strategic--SuperSpin" style="swimlane;html=1;startSize=40;horizontal=0;" parent="dNxyNK7c78bLwvsdeMH5-19" vertex="1">
          <mxGeometry x="20" width="690" height="120" as="geometry" />
        </mxCell>
        <mxCell id="dNxyNK7c78bLwvsdeMH5-25" value="" style="edgeStyle=orthogonalEdgeStyle;rounded=0;orthogonalLoop=1;jettySize=auto;html=1;" parent="dNxyNK7c78bLwvsdeMH5-20" source="dNxyNK7c78bLwvsdeMH5-23" target="dNxyNK7c78bLwvsdeMH5-24" edge="1">
          <mxGeometry relative="1" as="geometry" />
        </mxCell>
        <mxCell id="dNxyNK7c78bLwvsdeMH5-23" value="" style="ellipse;whiteSpace=wrap;html=1;" parent="dNxyNK7c78bLwvsdeMH5-20" vertex="1">
          <mxGeometry x="40" y="40" width="40" height="40" as="geometry" />
        </mxCell>
        <mxCell id="dNxyNK7c78bLwvsdeMH5-24" value="" style="rounded=0;whiteSpace=wrap;html=1;fontFamily=Helvetica;fontSize=12;fontColor=#000000;align=center;" parent="dNxyNK7c78bLwvsdeMH5-20" vertex="1">
          <mxGeometry x="120" y="30" width="80" height="60" as="geometry" />
        </mxCell>
        <mxCell id="dNxyNK7c78bLwvsdeMH5-33" value="" style="edgeStyle=orthogonalEdgeStyle;rounded=0;orthogonalLoop=1;jettySize=auto;html=1;endArrow=classic;endFill=1;" parent="dNxyNK7c78bLwvsdeMH5-20" source="dNxyNK7c78bLwvsdeMH5-30" target="dNxyNK7c78bLwvsdeMH5-32" edge="1">
          <mxGeometry relative="1" as="geometry" />
        </mxCell>
        <mxCell id="dNxyNK7c78bLwvsdeMH5-30" value="" style="rounded=0;whiteSpace=wrap;html=1;fontFamily=Helvetica;fontSize=12;fontColor=#000000;align=center;" parent="dNxyNK7c78bLwvsdeMH5-20" vertex="1">
          <mxGeometry x="240" y="30" width="80" height="60" as="geometry" />
        </mxCell>
        <mxCell id="dNxyNK7c78bLwvsdeMH5-32" value="" style="ellipse;whiteSpace=wrap;html=1;" parent="dNxyNK7c78bLwvsdeMH5-20" vertex="1">
          <mxGeometry x="360" y="40" width="40" height="40" as="geometry" />
        </mxCell>
        <mxCell id="dNxyNK7c78bLwvsdeMH5-21" value="Tactical--Outbound Planning" style="swimlane;html=1;startSize=20;horizontal=0;" parent="dNxyNK7c78bLwvsdeMH5-19" vertex="1">
          <mxGeometry x="20" y="120" width="690" height="120" as="geometry" />
        </mxCell>
        <mxCell id="dNxyNK7c78bLwvsdeMH5-29" value="" style="edgeStyle=orthogonalEdgeStyle;rounded=0;orthogonalLoop=1;jettySize=auto;html=1;endArrow=classic;endFill=1;" parent="dNxyNK7c78bLwvsdeMH5-21" source="dNxyNK7c78bLwvsdeMH5-26" target="dNxyNK7c78bLwvsdeMH5-28" edge="1">
          <mxGeometry relative="1" as="geometry" />
        </mxCell>
        <mxCell id="dNxyNK7c78bLwvsdeMH5-26" value="" style="rounded=0;whiteSpace=wrap;html=1;fontFamily=Helvetica;fontSize=12;fontColor=#000000;align=center;" parent="dNxyNK7c78bLwvsdeMH5-21" vertex="1">
          <mxGeometry x="120" y="30" width="80" height="60" as="geometry" />
        </mxCell>
        <mxCell id="dNxyNK7c78bLwvsdeMH5-28" value="" style="rhombus;whiteSpace=wrap;html=1;fontFamily=Helvetica;fontSize=12;fontColor=#000000;align=center;" parent="dNxyNK7c78bLwvsdeMH5-21" vertex="1">
          <mxGeometry x="260" y="40" width="40" height="40" as="geometry" />
        </mxCell>
        <mxCell id="dNxyNK7c78bLwvsdeMH5-22" value="Execution--New Activity Screen" style="swimlane;html=1;startSize=20;horizontal=0;" parent="dNxyNK7c78bLwvsdeMH5-19" vertex="1">
          <mxGeometry x="20" y="240" width="690" height="120" as="geometry" />
        </mxCell>
        <mxCell id="dNxyNK7c78bLwvsdeMH5-37" value="" style="edgeStyle=orthogonalEdgeStyle;rounded=0;orthogonalLoop=1;jettySize=auto;html=1;endArrow=classic;endFill=1;" parent="dNxyNK7c78bLwvsdeMH5-22" source="dNxyNK7c78bLwvsdeMH5-34" target="dNxyNK7c78bLwvsdeMH5-36" edge="1">
          <mxGeometry relative="1" as="geometry" />
        </mxCell>
        <mxCell id="dNxyNK7c78bLwvsdeMH5-34" value="" style="rounded=0;whiteSpace=wrap;html=1;fontFamily=Helvetica;fontSize=12;fontColor=#000000;align=center;" parent="dNxyNK7c78bLwvsdeMH5-22" vertex="1">
          <mxGeometry x="240" y="20" width="80" height="60" as="geometry" />
        </mxCell>
        <mxCell id="dNxyNK7c78bLwvsdeMH5-36" value="" style="rhombus;whiteSpace=wrap;html=1;fontFamily=Helvetica;fontSize=12;fontColor=#000000;align=center;" parent="dNxyNK7c78bLwvsdeMH5-22" vertex="1">
          <mxGeometry x="360" y="30" width="40" height="40" as="geometry" />
        </mxCell>
      </root>
    </mxGraphModel>
  </diagram>
</mxfile>
